<svg width="24" height="25" viewBox="0 0 24 25" fill="none" xmlns="http://www.w3.org/2000/svg">
<path d="M1 1H3.44444L3.93333 3.55556M5.88889 13.7778H18.1111L23 3.55556H3.93333M5.88889 13.7778L3.93333 3.55556M5.88889 13.7778L3.08646 16.7076C2.31651 17.5125 2.86182 18.8889 3.95071 18.8889H18.1111M18.1111 18.8889C16.7611 18.8889 15.6667 20.0331 15.6667 21.4444C15.6667 22.8558 16.7611 24 18.1111 24C19.4611 24 20.5556 22.8558 20.5556 21.4444C20.5556 20.0331 19.4611 18.8889 18.1111 18.8889ZM8.33333 21.4444C8.33333 22.8558 7.23892 24 5.88889 24C4.53886 24 3.44444 22.8558 3.44444 21.4444C3.44444 20.0331 4.53886 18.8889 5.88889 18.8889C7.23892 18.8889 8.33333 20.0331 8.33333 21.4444Z" stroke="#F3F3F3" stroke-width="1.5" stroke-linecap="round" stroke-linejoin="round"/>
</svg>
